<?xml version="1.0" encoding="utf-8"?>
<!-- Generator: Adobe Illustrator 15.0.2, SVG Export Plug-In . SVG Version: 6.00 Build 0)  -->
<!DOCTYPE svg PUBLIC "-//W3C//DTD SVG 1.1//EN" "http://www.w3.org/Graphics/SVG/1.1/DTD/svg11.dtd">
<svg version="1.1" id="Layer_1" xmlns="http://www.w3.org/2000/svg" xmlns:xlink="http://www.w3.org/1999/xlink" x="0px" y="0px"
	 width="569.5px" height="116.4px" viewBox="0 0 569.5 116.4" style="enable-background:new 0 0 569.5 116.4;" xml:space="preserve"
	>
<style type="text/css">
<![CDATA[
	.st0{fill:#7C981F;}
	.st1{fill:#FFFFFF;}
]]>
</style>
<g>
	<path class="st0" d="M392.9,31.4c-0.4-0.8-1.3-1.4-1.9-2c-0.6-0.6-1.3-1.3-1.9-1.9c-1.1-1.3-2.5-2.5-3.7-3.7
		c-2.5-2.5-4.9-5-7.4-7.4c-5-4.9-9.9-9.9-14.8-14.8c-0.1-0.1-0.3-0.3-0.5-0.4c-0.4-0.5-1.1-0.9-1.8-0.9h-1.2c-0.8,0-1.7,0.6-2,1.3
		l-11.3,24.3c-0.9-1-1.9-2-2.9-2.9c-0.8-1-1.9-2.1-3-3c-0.9-1-1.9-2.1-3-3c-0.9-1-1.9-2.1-3-3c-0.8-1-1.9-2.1-3-3
		c-0.8-1-1.9-2.1-3-3c-0.8-1-1.9-2.1-3-3c-0.8-1-1.9-2.1-3-3c-0.4-0.5-1-0.8-1.7-0.8h-53.3c-1.3,0-2.3,1.1-2.3,2.3v11.1
		c-2.1-2-4.1-4.1-6.2-6.2C257,6.4,255,4,252.8,2.1c-0.4-0.5-1.1-0.9-1.7-0.9h-14.4c-1.3,0-2.3,1.1-2.3,2.3v42.6h-0.1L186.4,0.1h-3
		c-1.2,0-2.3,1-2.3,2.2l0.1,37.6c-4.9-5-9.9-9.9-14.9-14.9c-2.5-2.5-4.9-4.9-7.4-7.4c-2.9-2.9-5.7-5.9-9-8.5
		c-8.3-6.4-18.9-9.6-29.4-8.8c-9.6,0.7-18.9,4.6-26,11.1c-3.9,3.6-7.1,7.8-9.5,12.6c-2.4-2.5-4.8-5.1-7.4-7.4
		c-2.7-2.9-5.6-5.8-8.7-8.2c-8.1-6.1-18-8.7-28-8.2c-18,1-33.9,13.5-39,30.8C-1,40.5-0.5,51,3.4,60.2c2,4.7,4.8,9.1,8.3,12.8
		c2.5,2.7,5.2,5.2,7.7,7.8c4.9,5,9.9,9.9,14.8,14.8c6,6,11.6,12.4,19.3,16.2c8.5,4.3,18.3,5.6,27.6,3.9c4.6-0.8,9-2.4,13.1-4.8
		c2.1-1.2,4.1-2.6,5.9-4.1c1.3-1.1,4.3-3.3,2.4-5.3C96.4,95,90.1,88.5,83.7,82.1c-1.4-1.7-3.2-3.2-4.8-4.8c-1.3-1.6-3-3-4.5-4.5
		c-1.3-1.6-3-3-4.5-4.5c-1.4-1.7-3.2-3.1-4.7-4.7c-0.7-0.7-1.5-1.4-2.2-2.2c-1.6-1.9-3.9,0.6-5.2,1.5c-2.1,1.4-4.4,2.4-6.8,3.1
		c1.5-5.8,5.1-11.1,10.2-14.4c5.7-3.7,12.9-4.6,19.4-2.7c0.7,5.3,2.4,10.5,5,15.2c2.4,4.3,5.5,7.9,9,11.3c4.9,5,9.9,9.9,14.8,14.8
		c2.5,2.5,4.9,4.9,7.4,7.4c2.7,2.7,5.3,5.6,8.2,8.1c8,6.9,18.3,10.5,28.9,10.4c15.4-0.2,29.9-8.8,37.3-22.3
		c3.4,3.3,6.7,6.7,10.1,10.1c1.7,1.7,3.4,3.4,5,5c1.7,1.7,3.4,3.6,5.2,5.2c0.4,0.5,1.1,0.9,1.7,0.9h14.3c1.3,0,2.3-1.1,2.3-2.3V68.2
		c6.1,6.1,12.2,12.2,18.3,18.4c3.9,4,7.9,7.9,11.9,11.9c3.9,4,7.9,7.9,11.9,11.9c1.8,1.8,3.7,3.6,5.5,5.5c0.2,0.2,1.2,0.6,1.6,0.6
		h1.9c1.2,0,2.3-1,2.3-2.2V35.5c0.5,0.5,1,1,1.5,1.5v46c0,0.7,0.3,1.3,0.9,1.7c1.1,1.3,2.5,2.5,3.7,3.7s2.4,2.6,3.7,3.7
		c1.1,1.3,2.5,2.5,3.7,3.7c1.2,1.2,2.4,2.6,3.7,3.7c1.1,1.3,2.5,2.5,3.7,3.7c1.2,1.2,2.4,2.6,3.7,3.7c1.1,1.3,2.5,2.5,3.7,3.7
		c1.2,1.2,2.4,2.6,3.7,3.7c0.4,0.5,1.1,0.9,1.7,0.9h14.4c1.2,0,2.3-1.1,2.3-2.3V97.9c0.6,0.7,1.3,1.4,2,2c0.6,0.7,1.4,1.5,2.1,2.1
		c0.6,0.7,1.4,1.5,2.1,2.1c0.6,0.7,1.4,1.5,2.1,2.1c0.6,0.7,1.4,1.5,2.1,2.1c0.6,0.7,1.4,1.5,2.1,2.1c0.6,0.7,1.4,1.5,2.1,2.1
		c0.6,0.7,1.4,1.5,2.1,2.1c0.4,0.5,1,0.8,1.8,0.8h13.2c2.4,0,3.7-1.4,4.3-2.9l4.3-9.6h26.8c3.9,3.6,7.4,7.7,11.3,11.3
		c0.8,0.9,1.7,1.2,3.1,1.2h13.3c1.8,0,2.8-1.6,2-3.1L392.9,31.4C392.7,31.1,392.9,31.4,392.9,31.4z M335.5,48.9l-1.8,3.9v-3.9H335.5
		L335.5,48.9z M146.4,50.3c-2.3,7.5-8.2,13.4-15.7,15.8C133.1,58.6,139,52.7,146.4,50.3z"/>
	<path class="st0" d="M568.7,31.8c-1.1-1.3-2.5-2.5-3.7-3.7c-1.2-1.2-2.4-2.6-3.7-3.7c-1.1-1.3-2.5-2.5-3.7-3.7
		c-1.2-1.2-2.4-2.6-3.7-3.7c-1.1-1.3-2.5-2.5-3.7-3.7c-1.2-1.2-2.4-2.6-3.7-3.7c-1.1-1.3-2.5-2.5-3.7-3.7c-1.2-1.2-2.4-2.6-3.7-3.7
		c-0.4-0.5-1-0.8-1.7-0.8H484c-1.3,0-2.3,1.1-2.3,2.3c0,2.2,0,4.4,0,6.6c0,1.5,0,3,0,4.5c0,0.8-0.1,1.7,0.1,2.5
		c-2.8-2.5-5.2-5.4-8.1-7.8c-3.8-3.1-8-5.6-12.6-7.2c-9.1-3.1-19.5-3-28.6,0.2c-17.1,5.9-28.9,22.3-29.1,40.4
		c-0.1,10.5,3.6,20.8,10.5,28.8c2.5,2.9,5.4,5.5,8.1,8.2c2.5,2.5,4.9,4.9,7.4,7.4c4.9,5,9.9,9.9,14.8,14.8c3.4,3.4,6.9,6.5,11.1,8.8
		c4.6,2.6,9.6,4.3,14.8,5c7.1,1,14.4,0.4,21.2-2c3.3-1.2,6.5-2.8,9.4-4.9c1.5-1.1,3-2.3,4.4-3.6c1.1-1,2.2-2.6,0.9-3.9
		c-6.2-6.6-12.4-13.3-19-19.6c-3.3-3.3-6.7-6.5-9.9-9.9c-3.2-3.4-6.6-6.4-9.8-9.8c-0.2-0.2-0.5-0.5-0.7-0.7
		c-1.6-1.9-3.9,0.6-5.2,1.5c-2.1,1.4-4.4,2.4-6.8,3.1c1.9-7.3,7.1-13.6,14.2-16.4c8.2-3.2,18.1-1.3,24.7,4.5c0.8,0.8,2.2,0.8,3,0
		l4.6-4.8V83c0,0.7,0.3,1.3,0.8,1.7c1.1,1.3,2.5,2.5,3.7,3.7c1.2,1.2,2.4,2.6,3.7,3.7c1.1,1.3,2.5,2.5,3.7,3.7
		c1.2,1.2,2.4,2.6,3.7,3.7c1.1,1.3,2.5,2.5,3.7,3.7s2.4,2.6,3.7,3.7c1.1,1.3,2.5,2.5,3.7,3.7c1.2,1.2,2.4,2.6,3.7,3.7
		c0.4,0.5,1.1,0.9,1.7,0.9h14.4c1.2,0,2.3-1.1,2.3-2.3V48.9h17.2c1.3,0,2.3-1.1,2.3-2.3V33.5C569.5,32.8,569.2,32.2,568.7,31.8
		C568.6,31.7,569.2,32.2,568.7,31.8z"/>
	<path class="st1" d="M43.3,0.1c12,0,20.9,3.7,29,11.2c1.1,1,1.1,2.4,0.1,3.4l-9.4,9.7c-0.8,0.8-2.2,0.8-3,0
		c-4.4-4-10.3-6.1-16.2-6.1c-13.6,0-23.5,11.3-23.5,24.7c0,13.3,10.1,24.4,23.6,24.4c5.6,0,11.8-2,16.1-5.8c0.8-0.7,2.4-0.7,3.1,0.1
		l9.4,10c0.8,0.8,0.7,2.4-0.1,3.2C64.3,82.7,54,86.4,43.3,86.4C19.3,86.4,0,67.4,0,43.4S19.3,0.1,43.3,0.1z"/>
	<path class="st1" d="M123.5,0.1c24,0,43.2,19.3,43.2,43.3s-19.2,43.1-43.2,43.1S80.4,67.4,80.4,43.4S99.5,0.1,123.5,0.1z
		 M123.5,67.2c13.2,0,24-10.8,24-23.9c0-13.2-10.8-24.1-24-24.1c-13.1,0-23.9,10.9-23.9,24.1C99.6,56.4,110.4,67.2,123.5,67.2z"/>
	<path class="st1" d="M181.1,2.2c0-1.2,1.1-2.2,2.3-2.2h3l47.9,46.1h0.1V3.5c0-1.2,1-2.3,2.3-2.3H251c1.2,0,2.3,1.1,2.3,2.3v80.8
		c0,1.2-1.1,2.2-2.3,2.2h-1.9c-0.4,0-1.3-0.4-1.6-0.6l-47.4-47.6H200V83c0,1.2-1,2.3-2.3,2.3h-14.3c-1.2,0-2.3-1.1-2.3-2.3
		L181.1,2.2z"/>
	<path class="st1" d="M284.8,18.9h-17.2c-1.3,0-2.3-1.1-2.3-2.3V3.5c0-1.2,1-2.3,2.3-2.3h53.3c1.3,0,2.3,1.1,2.3,2.3v13.1
		c0,1.2-1,2.3-2.3,2.3h-17.2V83c0,1.2-1.1,2.3-2.3,2.3H287c-1.2,0-2.3-1.1-2.3-2.3V18.9z"/>
	<path class="st1" d="M320,82.1l37.6-80.8c0.4-0.7,1.2-1.3,2-1.3h1.2c0.8,0,1.7,0.6,2,1.3l37.6,80.8c0.7,1.6-0.2,3.1-2,3.1h-13.3
		c-2.2,0-3.1-0.7-4.2-3l-4.3-9.5h-32.6l-4.3,9.6c-0.6,1.4-1.9,2.9-4.3,2.9h-13.2C320.3,85.2,319.3,83.7,320,82.1z M369.4,56.4
		l-9.1-19.8h-0.1l-9,19.8H369.4z"/>
	<path class="st1" d="M446.7,0.1c12,0,20.9,3.7,29,11.2c1.1,1,1.1,2.4,0.1,3.4l-9.4,9.7c-0.8,0.8-2.2,0.8-3,0
		c-4.4-4-10.3-6.1-16.2-6.1c-13.6,0-23.5,11.3-23.5,24.7c0,13.3,10.1,24.4,23.6,24.4c5.6,0,11.8-2,16.1-5.8c0.8-0.7,2.4-0.7,3.1,0.1
		l9.4,10c0.8,0.8,0.7,2.4-0.1,3.2c-8.2,7.9-18.5,11.6-29.2,11.6c-24,0-43.3-19.1-43.3-43.1S422.8,0.1,446.7,0.1z"/>
	<path class="st1" d="M501.1,18.9H484c-1.3,0-2.3-1.1-2.3-2.3V3.5c0-1.2,1-2.3,2.3-2.3h53.3c1.3,0,2.3,1.1,2.3,2.3v13.1
		c0,1.2-1,2.3-2.3,2.3h-17.2V83c0,1.2-1.1,2.3-2.3,2.3h-14.4c-1.2,0-2.3-1.1-2.3-2.3V18.9z"/>
</g>
</svg>
