<?xml version="1.0" encoding="utf-8"?>
<!-- Generator: Adobe Illustrator 15.0.2, SVG Export Plug-In . SVG Version: 6.00 Build 0)  -->
<!DOCTYPE svg PUBLIC "-//W3C//DTD SVG 1.1//EN" "http://www.w3.org/Graphics/SVG/1.1/DTD/svg11.dtd">
<svg version="1.1" id="Layer_1" xmlns="http://www.w3.org/2000/svg" xmlns:xlink="http://www.w3.org/1999/xlink" x="0px" y="0px"
	 width="31.5px" height="42px" viewBox="0 0 31.5 42" style="enable-background:new 0 0 31.5 42;" xml:space="preserve">
<style type="text/css">
<![CDATA[
	.st0{fill:#FFFFFF;}
]]>
</style>
<g>
	<path class="st0" d="M31.5,15.8c0,3.4-1,6.4-3,9.2L28,25.7L16.8,41.5c-0.2,0.3-0.6,0.5-1,0.5s-0.8-0.2-1-0.5l-11.3-16L3,24.9
		c-2-2.8-3-5.8-3-9.2c0-4.3,1.5-8.1,4.6-11.1S11.4,0,15.8,0s8.1,1.5,11.1,4.6S31.5,11.4,31.5,15.8z M21,15.8c0-1.4-0.5-2.7-1.5-3.7
		s-2.3-1.5-3.7-1.5S13.1,11,12,12s-1.5,2.3-1.5,3.7s0.5,2.7,1.5,3.7s2.3,1.5,3.7,1.5s2.7-0.5,3.7-1.5S21,17.2,21,15.8z"/>
</g>
</svg>
