<?xml version="1.0" encoding="utf-8"?>
<!-- Generator: Adobe Illustrator 15.0.2, SVG Export Plug-In . SVG Version: 6.00 Build 0)  -->
<!DOCTYPE svg PUBLIC "-//W3C//DTD SVG 1.1//EN" "http://www.w3.org/Graphics/SVG/1.1/DTD/svg11.dtd">
<svg version="1.1" id="Layer_1" xmlns="http://www.w3.org/2000/svg" xmlns:xlink="http://www.w3.org/1999/xlink" x="0px" y="0px"
	 width="234px" height="234px" viewBox="0 0 234 234" style="enable-background:new 0 0 234 234;" xml:space="preserve">
<style type="text/css">
<![CDATA[
	.st0{fill:#FFFFFF;}
	.st1{fill:#3DABEE;}
]]>
</style>
<g>
	<path class="st1" d="M117,0C52.4,0,0,52.4,0,117c0,64.6,52.4,117,117,117c64.6,0,117-52.4,117-117C234,52.4,181.6,0,117,0z"/>
	<path class="st0" d="M156.1,122.3c-4.8,5.1-8.7,10.1-11.8,14.9c-3.1,4.8-5.9,10-8.5,15.5c-2.6,5.5-4.5,10.3-5.9,14.4
		c-1.4,4.1-2.6,8.2-3.6,12.2c-1,4.1-1.6,6.8-1.8,8.2s-0.4,2.5-0.6,3.2h-4.2l0.1-85.5c2.2-0.6,4-1.8,5.5-3.6c1.5-1.8,2.2-3.8,2.2-6.1
		c0-2.9-1-5.4-3-7.3c-2-1.9-4.4-2.9-7.2-2.9s-5.2,1-7.2,2.9c-2,1.9-3,4.4-3,7.3c0,2.3,0.7,4.3,2.2,6.1c1.5,1.8,3.3,3,5.5,3.6
		l-0.1,85.5h-4.2c-0.1-0.7-0.3-1.8-0.5-3.2s-0.8-4.1-1.8-8.2c-1-4.1-2.2-8.2-3.6-12.2c-1.4-4.1-3.4-8.9-5.9-14.4
		c-2.6-5.5-5.4-10.7-8.5-15.5c-3.1-4.8-7-9.8-11.8-14.9c-4.7-5.1-9.9-9.5-15.5-13.2l13.7-81.6c0,0,13.9-11.7,41.3-11.6
		c27.4,0,40.2,11.7,40.2,11.7l13.7,81.6C166.1,112.8,160.9,117.2,156.1,122.3z"/>
</g>
</svg>
