<?xml version="1.0" encoding="utf-8"?>
<!-- Generator: Adobe Illustrator 15.0.2, SVG Export Plug-In . SVG Version: 6.00 Build 0)  -->
<!DOCTYPE svg PUBLIC "-//W3C//DTD SVG 1.1//EN" "http://www.w3.org/Graphics/SVG/1.1/DTD/svg11.dtd">
<svg version="1.1" id="Layer_1" xmlns="http://www.w3.org/2000/svg" xmlns:xlink="http://www.w3.org/1999/xlink" x="0px" y="0px"
	 width="234px" height="234px" viewBox="0 0 234 234" style="enable-background:new 0 0 234 234;" xml:space="preserve">
<style type="text/css">
<![CDATA[
	.st0{fill:#FFFFFF;}
	.st1{fill:#389BDE;}
	.st2{fill:#3DABEE;}
]]>
</style>
<circle class="st2" cx="117" cy="117" r="117"/>
<g>
	<path class="st1" d="M55.7,77.7c-1.2-0.6-2.7-0.5-4-0.6c-1-0.1-1.9-0.1-2.9-0.2c0,0,0.1,0,0.1,0c0.7-0.3-0.9-2.7-1.6-2.6
		c-0.5,0-1-0.2-1.4-0.2C45,74,43.9,73.7,43,73.8c-0.9-0.1-1.9-0.4-2.9-0.3c-0.9-0.1-1.9-0.4-2.8-0.3c-0.7-0.1-1.2-0.2-1.8,0.1
		c-2,1.2-3.5,3-4,5.3C31,80.7,31.9,83,34,84c1,0.5,2,0.4,3.1,0.4c1.9,0,3.8-0.1,5.7-0.2c0.3,0,0.6,0,0.9,0c-0.4,0.3-2.4,1.4-1.9,2.1
		c0.4,0.6,1.2,2.3,2,2.1c0.4-0.1,0.9,0,1.3-0.1c0.8-0.1,1.8,0,2.6-0.2c1.7-0.2,3.5-0.1,5.2-0.4c1.3-0.2,2.2-0.4,3.2-1.4
		C58.2,83.9,59.3,79.3,55.7,77.7C55.3,77.5,57.7,78.6,55.7,77.7z"/>
	<path class="st1" d="M65.5,69.9c-1.1-0.7-1.9-1.4-3.2-1.6c-0.7-0.2-1.4-0.3-2-0.5c0-0.5-1.7-1.6-2.2-1.7c-0.3-0.1-0.6-0.2-1-0.3
		c-0.6-0.2-1.3-0.3-1.9-0.5l1-1.4c0.1-0.2,0.1-0.4-0.1-0.5c-1.2-0.8-2.2-1.6-3.6-1.9c-0.8-0.3-1.7-0.6-2.6-0.8
		c-1.6-0.6-3.5-1.3-5.2-1.6c-0.4-0.1-1.2-0.5-1.5-0.1c-0.6,0.8-1.1,1.6-1.7,2.4c-1.3,1.9-2.7,3.8-4,5.7c-0.2,0.2-0.1,0.5,0.1,0.6
		c4,2.8,8,5.6,12.1,8.4c0.4,0.3,0.8,0.7,1.4,0.8c0.4,0.1,0.8,0,1.2,0.1c0.7,0.2,1.6,0.1,2.3,0.2c1.4,0.3,3,0.2,4.4,0.3
		c0.3,0.1,0.7,0,1.1,0.1c0.7,0.2,1.2-1,1.5-1.5c1.3-1.9,2.6-3.8,4-5.7C65.7,70.3,65.6,70,65.5,69.9C65.5,69.9,65.6,70,65.5,69.9z"/>
	<path class="st1" d="M73.5,61.6c-0.9-0.9-1.7-1.8-2.9-2.2c-0.3-0.1-0.6-0.3-0.9-0.5c-0.1-0.1-0.3-0.2-0.4-0.2
		c-0.3-0.2-0.3-0.2-0.5-0.5c-1.2-1.2-2.5-2.3-4.2-2.9c-0.1,0-0.1-0.1-0.2-0.1l1.1-1.1c0.2-0.2,0.1-0.4,0-0.6c-1-1-1.9-1.9-3.1-2.5
		c-0.7-0.4-1.4-0.9-2.2-1.2c-1.4-0.8-2.9-1.9-4.4-2.5c-0.4-0.2-1-0.7-1.4-0.3c-0.7,0.7-1.4,1.4-2,2c-1.6,1.7-3.3,3.3-4.9,5
		c-0.2,0.2-0.2,0.5,0,0.6c3.5,3.5,7,6.9,10.4,10.4c0.4,0.4,0.7,0.8,1.2,1c0.3,0.1,0.7,0.2,1,0.3c0.6,0.3,1.4,0.3,2.1,0.6
		c1.2,0.5,2.6,0.7,3.9,1c0.3,0.1,0.6,0.2,0.9,0.3c0.7,0.3,1.3-0.8,1.7-1.2c1.6-1.6,3.3-3.3,4.9-4.9C73.7,62,73.7,61.8,73.5,61.6
		C73.5,61.6,73.7,61.8,73.5,61.6z"/>
	<path class="st1" d="M92.1,49.9c-0.4-0.4-0.7-0.9-1.1-1.3l0,0c-1.3-1.6-2.5-3.2-3.8-4.8c-1.9-2.4-3.9-4.8-5.8-7.3
		c-0.9-1.1-1.8-2.2-2.7-3.4c-0.2-0.3-1-1.7-1.6-1.4c-0.8,0.3-0.6,1.1-0.6,1.8c0,1.4,0,2.8,0.1,4.1c0,2.1,0.1,4.3,0.1,6.4l0,0
		c-1.8-1.2-3.6-2.3-5.4-3.5c-1.1-0.7-2.2-1.4-3.4-2.2c-0.6-0.4-1.2-1.1-2-0.6c-0.5,0.3,0.1,1.5,0.3,1.8c0.4,1.2,0.9,2.5,1.3,3.7
		c1,2.9,2,5.7,3,8.6c0.3,1,0.5,2.1,1.6,2.5c0.6,0.2,1,0.8,1.6,1c0.8,0.4,1.6,1.2,2.4,1.5c0.4,0.2,0.8,0.6,1.2,0.7
		c0.4,0.2,0.5,0.4,1,0.2c0.4-0.2,2.4-1,2.2-1.6l-2.3-6l0,0c1,0.7,2,1.3,3.1,2c0.7,0.5,1.4,0.9,2.1,1.4c0.3,0.2,0.7,0.6,1.1,0.7
		c1.3,0.9,0.9-2.8,0.9-3.1c0-1.4-0.1-2.7-0.1-4.1c0.2,0.4,0.8,0.9,1.1,1.2c0.3,0.4,0.8,0.8,1.1,1.2c0.5,0.6,1.1,1.2,1.6,1.8
		c0.4,0.5,2.2-0.9,2.6-1.1C92.2,50.4,92.2,50.1,92.1,49.9C92.1,49.9,92.2,50.1,92.1,49.9z"/>
	<path class="st1" d="M105.6,39.3c-0.3-1.2-0.7-2.3-1-3.5c-0.3-1.2-0.6-2.3-1-3.5c-1.2-4.3-5.5-7.2-10-6.3
		c-4.6,0.9-7.7,5.5-6.8,10.1c0.6,2.8,2.7,5.1,4.3,7.5c1.4,2.4,3.3,4.5,6.2,4.9C102.5,49.3,106.9,44.4,105.6,39.3
		C105.6,39.3,106.6,43.3,105.6,39.3z M96.5,39.2c-0.6,0.1-1.1,0.2-1.7,0.1c0.9-1.6,2.6-2.5,4.4-2.1C98.6,38.1,97.7,38.9,96.5,39.2
		C95.9,39.3,97.7,38.9,96.5,39.2z"/>
	<path class="st1" d="M120.5,39.5c0-0.6-0.7-1.3-1-1.8c0.6-1.5,0.4-3.4,0.5-4.9c0.3-2.1,0.5-5.2-0.5-7c-1-1.6-2.8-2.5-4.7-2.5
		l-7.2,0.3c-0.3,0-0.4,0.2-0.4,0.5c0.2,4.9,0.4,9.8,0.6,14.7c0,0.9,0.1,1.6,0.3,2.5c0.1,1.1,0.5,2.3,0.8,3.4c0,0.4,0.2,0.9,0.3,1.3
		c0,0.2,0.2,0.4,0.4,0.4l2.5-0.1c0.2,0,0.4-0.2,0.4-0.4l-0.2-5.3l1.4-0.1c0.8,1.5,1.6,3,2.5,4.4c0.2,0.4,0.4,1.1,1,1.1
		c0.9,0,1.7-0.1,2.6-0.1c0.6,0,0.6-2.8,0.6-3.3C120.3,41.6,120.6,40.6,120.5,39.5C120.5,39.6,120.5,39.5,120.5,39.5
		C120.5,39.4,120.5,39.5,120.5,39.5z"/>
	<path class="st1" d="M136.3,25.6c0-0.2-0.1-0.5-0.4-0.5l-9.8-1.4c-0.3,0-0.5,0.1-0.5,0.4c-0.9,5.9-1.7,11.8-2.6,17.7
		c-0.2,1.3-0.4,2.7-0.6,4c0,0.2,0.1,0.4,0.3,0.4c2.4,0.4,4.9,0.7,7.3,1.1c0.7,0.1,1.3,0.4,1.6-0.3c0.1-0.2,0.2-0.5,0.3-0.7
		c0.6-0.8,0.7-2,1.2-2.8c0.8-1.4,1-3.1,1.2-4.7c0-0.2-0.1-0.5-0.4-0.5l-1.4-0.2c0.3-1.3,0.9-2.7,1.3-4c0.8-2.1,1.8-4.4,2.1-6.6
		C136.1,26.8,136.2,26.2,136.3,25.6C136.3,25.4,136.3,25.6,136.3,25.6z"/>
	<path class="st1" d="M165,35.9c-0.5-0.2-2.6-1.6-3.1-1c-0.1,0.1-0.3,0.3-0.4,0.4c-0.3,0.3-0.5,0.6-0.8,0.8c-0.5,0.6-1,1.1-1.6,1.6
		c-0.7,1-1.8,1.9-2.6,2.8c0-1.6,0.1-3.2,0.1-4.8c0-0.7,0.6-4.5-0.9-4.2c-0.4,0.1-0.9,0.7-1.1,0.9c-0.8,0.7-1.6,1.4-2.4,2.1
		c-1.2,1.1-2.4,2.1-3.6,3.2l-0.1,0c0.4-2.2,0.8-4.4,1.2-6.6c0.1-0.5,0.6-1.9,0-2.2c-0.5-0.2-2.7-1.6-3.1-1c-1.6,2.4-2.7,5.1-4.1,7.6
		c-0.3,0.4-0.2,1.3-0.3,1.7c-0.2,1.3-0.4,2.5-0.6,3.8c-0.4,2.7-0.8,5.4-1.3,8c0,0.3-0.1,0.5-0.1,0.8c-0.1,0.4,0.5,0.9,0.9,0.6
		c0.6-0.3,1.3-1.1,1.8-1.5c1.7-1.5,3.5-3,5.2-4.6l0.1,0c0,2.5-0.1,4.9-0.1,7.4c0,0.6-0.3,2.2,0.5,2.3c0.3,0.1,0.6-0.2,0.8-0.4
		c0.4-0.4,0.9-0.8,1.3-1.1c0.6-0.9,1.8-1.6,2.6-2.3c0.1-0.2,0.5-0.4,0.6-0.6c0.4-0.4,0.8-0.8,1.2-1.3c3.3-3.9,6.7-7.8,10-11.8
		c0,0,0,0,0-0.1C165.4,36.4,165.3,36.1,165,35.9C165,35.9,165.3,36.1,165,35.9z"/>
	<path class="st1" d="M176,43.9c-3.4-2.7-8-2.4-11.3,0.3c-0.6,0.5-1.1,0.9-1.7,1.3c-1.1,0.9-2.3,1.7-3.3,2.7c-1.2,1-2.4,1.9-3.2,3.3
		c-2.4,4.4,0.4,9.9,5.3,10.8c2.6,0.5,5.2-0.9,7.5-1.9c1.2-0.5,2.4-0.9,3.5-1.5c2.2-0.8,4-2.1,5.2-4.1
		C180.2,51.3,179.3,46.6,176,43.9C172.7,41.3,179.7,46.9,176,43.9z M166.1,52.3c0.4,0.5,0.7,1,0.9,1.6
		C166.6,53.4,166.3,52.8,166.1,52.3z"/>
	<path class="st1" d="M191.2,59.7c-1.5-1.8-2.9-3.7-4.4-5.5c-0.5-0.6-2.1,0.4-2.7,0.6c-1.6,0.4-3.3,1.3-4.8,2
		c-1.5,0.4-2.9,1.2-4.1,2.2c-3.1,2.5-6.3,5-9.4,7.5c-0.2,0.1-0.2,0.4-0.1,0.6c0.5,0.6,1,1.2,1.4,1.8c0.3,0.3,0.7,0.2,1,0.1
		c0.5-0.1,0.9-0.2,1.4-0.4c0.9-0.2,1.8-0.5,2.7-0.7c-0.5,1.1-1,2.2-1.5,3.3c-0.2,0.4-0.4,0.8-0.6,1.2c-0.2,0.4,0.7,1.1,0.9,1.4
		c0.6,0.7,0.9,1.5,1.9,1.2c0.4,0,0.8,0,1.1-0.1c1.5-0.1,3.1-0.2,4.5-0.6c0.8-0.1,1.6-0.1,2.3-0.3c1-0.1,1-0.8,1.4-1.6
		c0.5-1.2,1-2.3,1.5-3.5c1.1-0.2,2.1-0.4,3.2-0.6c1-0.2,2.1-0.3,2.9-0.8C192.5,65.9,193.1,62.1,191.2,59.7
		C191.2,59.7,193,62,191.2,59.7z"/>
	<path class="st1" d="M203.4,80.1c-0.5-0.9-0.9-1.8-1.4-2.7c-0.3-0.5-1.7-0.6-2.2-0.7c-2.2-0.4-4.4-0.9-6.6-1.3l5.6-2.9
		c0.3-0.1,0.4-0.5,0.2-0.8c-0.3-0.6-1.1-2.9-1.9-2.8c-0.5,0-0.9,0.1-1.4,0.2c-0.9,0-1.9,0.3-2.8,0.5c-1.8,0.1-3.8,0.6-5.6,0.9
		c-1.9,0.1-3.6,1.3-5.2,2.2c-2.8,1.4-5.5,2.9-8.3,4.3c-0.2,0.1-0.3,0.4-0.2,0.7c0.4,0.8,0.8,2.5,1.9,2.4c0.4,0,0.9,0,1.3,0
		c0.9,0,1.8,0,2.7-0.1c-0.5,1.1-1.1,2.2-1.6,3.3c-0.2,0.4-0.4,0.8-0.6,1.2c-0.2,0.4,0.5,1.2,0.6,1.5c0.4,0.9,0.7,1.8,1.7,1.7
		c0.4,0,0.8,0.1,1.3,0.1c1.6,0.1,3.4,0.5,5,0.5c1,0.1,2.1,0.3,3.2,0.3c0.6,0,0.7-0.6,0.9-1c0.4-0.8,0.8-1.7,1.2-2.5
		c0.6-1.3,1.2-2.6,1.9-4c2,0,4-0.2,6-0.1c1.2,0,2.5-0.1,3.7,0C203.2,81,203.6,80.5,203.4,80.1C203.4,80.1,203.6,80.5,203.4,80.1z"/>
</g>
<g>
	<path class="st0" d="M43.1,88.1l-1.3-1.9c-0.2-0.3,0-0.7,0.2-0.8c0.1-0.1,2-1.1,2.6-2.5c0.4-0.9,0.2-1.8-0.6-2.1
		c-0.9-0.4-2,0-3.2,1.2c-1.6,1.5-4.2,3.2-6.8,1.9c-2.1-1-3.5-3.7-1.9-7.1c1.1-2.3,3-3.4,3.8-3.9c0.3-0.2,0.6,0,0.8,0.2l1.1,1.9
		c0.2,0.3,0.2,0.7-0.1,0.9c-0.2,0.1-2.1,1.2-2.8,2.5c-0.4,0.8-0.1,1.6,0.5,1.9c0.8,0.4,1.7,0,3.2-1.4c1.5-1.4,4.1-3.4,7-2
		c2.2,1.1,3.6,4.1,2.1,7.2c-1.3,2.8-3.2,3.8-4,4.1C43.4,88.4,43.3,88.5,43.1,88.1z"/>
	<path class="st0" d="M37.7,67.7c-0.2-0.1-0.3-0.4-0.1-0.6l5.7-8.1c0.2-0.2,0.4-0.2,0.6-0.1l2.1,1.5c0.2,0.1,0.3,0.4,0.1,0.6
		l-3.8,5.4l2.4,1.7l3.1-4.5c0.1-0.2,0.4-0.2,0.6-0.1l2.1,1.5c0.2,0.2,0.2,0.4,0.1,0.6l-3.1,4.5l2.7,1.9l3.8-5.4
		c0.2-0.2,0.4-0.2,0.6-0.1l2.1,1.5c0.2,0.1,0.3,0.4,0.1,0.6l-5.7,8.1c-0.2,0.2-0.4,0.2-0.6,0.1L37.7,67.7z"/>
	<path class="st0" d="M47.4,54.8c-0.2-0.2-0.2-0.5,0-0.6l7-7c0.2-0.2,0.5-0.2,0.6,0l1.9,1.8c0.2,0.2,0.2,0.5,0,0.6l-4.7,4.7l2.1,2.1
		l3.9-3.9c0.2-0.2,0.5-0.2,0.6,0l1.9,1.8c0.2,0.2,0.2,0.5,0,0.6l-3.9,3.9l2.3,2.3l4.7-4.7c0.2-0.2,0.5-0.2,0.6,0l1.9,1.8
		c0.2,0.2,0.2,0.5,0,0.6l-7,7c-0.2,0.2-0.5,0.2-0.6,0L47.4,54.8z"/>
	<path class="st0" d="M65.8,38.4c-0.1-0.2,0-0.5,0.2-0.5l0.3-0.2c0.1-0.1,0.3-0.1,0.5,0l9.9,6.4l0,0l-0.2-11.8
		c0-0.2,0.1-0.3,0.2-0.4l0.3-0.2c0.2-0.1,0.4-0.1,0.6,0.1l10.2,12.8c0.2,0.2,0.1,0.5-0.1,0.7l-2.5,1.4c-0.2,0.1-0.5,0-0.6-0.1
		l-4.5-6l0,0l0.2,8.8c0,0.2-0.1,0.4-0.2,0.4L79.8,50c-0.1,0.1-0.4,0.1-0.5,0L72,45.1l0,0l2.7,7c0.1,0.2,0,0.4-0.2,0.6l-2.5,1.4
		c-0.3,0.1-0.5,0.1-0.7-0.2L65.8,38.4z"/>
	<path class="st0" d="M93.1,26.2c4.6-1.2,9.3,1.5,10.6,6.2s-1.5,9.3-6.2,10.5c-4.6,1.2-9.3-1.5-10.5-6.1S88.4,27.4,93.1,26.2z
		 M96.5,39.2c2.6-0.7,4.1-3.3,3.4-5.8c-0.7-2.6-3.3-4.1-5.9-3.4c-2.5,0.7-4.1,3.3-3.4,5.9C91.3,38.3,94,39.8,96.5,39.2z"/>
	<path class="st0" d="M107.2,24.1c0-0.2,0.2-0.5,0.4-0.5l7.2-0.3c2.9-0.1,5.3,2.1,5.4,5c0.1,2.2-1.3,4-3.4,5l3.5,6
		c0.2,0.3,0,0.7-0.4,0.7l-3.2,0.1c-0.2,0-0.3-0.1-0.4-0.2l-3.4-6.2l-1.7,0.1l0.2,6.1c0,0.2-0.2,0.5-0.4,0.5l-2.9,0.1
		c-0.3,0-0.5-0.2-0.5-0.4L107.2,24.1z M114.8,30.5c1,0,1.8-1,1.7-2c0-1-0.9-1.8-1.9-1.8l-3.5,0.1l0.1,3.7L114.8,30.5z"/>
	<path class="st0" d="M125.6,24c0-0.2,0.3-0.4,0.5-0.4l9.8,1.4c0.3,0,0.4,0.3,0.4,0.5l-0.4,2.6c0,0.2-0.3,0.4-0.5,0.4l-6.6-1
		l-0.4,2.9l5.4,0.8c0.2,0,0.4,0.3,0.4,0.5l-0.4,2.6c0,0.3-0.3,0.4-0.5,0.4l-5.4-0.8l-0.5,3.2l6.6,1c0.3,0,0.4,0.3,0.4,0.5l-0.4,2.6
		c0,0.2-0.3,0.4-0.5,0.4l-9.8-1.4c-0.3,0-0.4-0.3-0.4-0.5L125.6,24z"/>
	<path class="st0" d="M146.7,28.1c0.1-0.3,0.3-0.5,0.6-0.3l2.6,1.2c0.2,0.1,0.3,0.3,0.3,0.5l-1.5,8.3l0.1,0l6.9-6.1
		c0.1-0.1,0.3-0.1,0.5-0.1l0.4,0.2c0.2,0.1,0.3,0.3,0.3,0.4l-0.2,9.2l0.1,0l5.3-6.5c0.1-0.1,0.4-0.2,0.5-0.1l2.6,1.2
		c0.3,0.1,0.4,0.4,0.2,0.7l-10.9,12.8c-0.1,0.2-0.4,0.2-0.5,0.1l-0.3-0.2c-0.2-0.1-0.3-0.2-0.3-0.4l0.1-10.8l-0.1,0l-8.1,7.1
		c-0.1,0.1-0.3,0.1-0.5,0.1l-0.3-0.2c-0.2-0.1-0.3-0.3-0.3-0.5L146.7,28.1z"/>
	<path class="st0" d="M176,43.9c3.7,3,4.3,8.4,1.3,12.2c-3,3.7-8.4,4.3-12.1,1.3c-3.7-3-4.3-8.4-1.3-12.1
		C166.9,41.5,172.3,40.9,176,43.9z M167.5,54.4c2.1,1.7,5.1,1.3,6.7-0.7c1.7-2.1,1.4-5.1-0.7-6.8c-2-1.6-5.1-1.3-6.7,0.7
		C165.2,49.7,165.5,52.7,167.5,54.4z"/>
	<path class="st0" d="M186,54.1c0.2-0.1,0.5-0.1,0.6,0.1l4.5,5.6c1.8,2.2,1.5,5.5-0.8,7.3c-1.7,1.4-4,1.4-6,0.2l-2.7,6.4
		c-0.1,0.3-0.5,0.4-0.8,0.1l-2-2.5c-0.1-0.1-0.1-0.3-0.1-0.4l3-6.5l-1-1.3l-4.8,3.8c-0.2,0.1-0.5,0.1-0.6-0.1l-1.8-2.2
		c-0.2-0.2-0.1-0.5,0.1-0.6L186,54.1z M185.4,64c0.6,0.8,1.9,0.9,2.6,0.2c0.8-0.6,0.9-1.8,0.3-2.6l-2.2-2.8l-2.9,2.3L185.4,64z"/>
	<path class="st0" d="M197,69c0.3-0.1,0.6-0.1,0.8,0.2l1.3,2.5c0.1,0.3,0,0.6-0.2,0.8l-5.6,2.9l8.4,1.7c0.2,0,0.4,0.2,0.4,0.3
		l1.4,2.7c0.2,0.4-0.2,0.9-0.6,0.8l-8.8-1.8l-4.3,9.1c-0.2,0.4-0.8,0.4-1,0l-1.5-2.9c-0.1-0.1-0.1-0.4,0-0.5l4.2-8.4l-6.4,3.3
		c-0.3,0.1-0.6,0-0.8-0.2l-1.3-2.5c-0.2-0.3,0-0.6,0.2-0.8L197,69z"/>
</g>
<g>
	<g>
		<path class="st0" d="M92.2,132l-2.6,12.6l12.8-2.3C103.8,137.2,97.2,130.6,92.2,132z"/>
		<path class="st0" d="M117,59.9c-31.6,0-57.1,25.6-57.1,57.1c0,31.6,25.6,57.1,57.1,57.1c31.6,0,57.1-25.6,57.1-57.1
			C174.1,85.4,148.6,59.9,117,59.9z M151.1,101.4l-45.9,45.9l-22.7,4.2l4.6-22.3L133,83.3C143.2,80.8,153.6,91.2,151.1,101.4z"/>
	</g>
</g>
<g>
	<path class="st1" d="M151.8,201.5c-0.9-0.9-1.4-2.3-2.4-3c1-2,0.1-3.8-1.4-5.2c-0.4-0.4-0.6-0.8-1-1.2c-0.7-0.8-1.3-1.6-2-2.3
		c-1.4-1.4-3.1-1.9-5-1.3c-1.5,0.5-3,1-4.5,1.5c-0.2,0.1-0.3,0.3-0.2,0.5c1.5,4.3,2.9,8.6,4.4,13c0.2,0.6,0.5,1.1,0.8,1.7
		c0.4,1.2,1.1,2.3,1.6,3.4c0.2,0.6,0.6,1.2,0.9,1.8c0.1,0.2,0.3,0.4,0.6,0.3l5.6-1.9C151.9,207.9,154.3,204.1,151.8,201.5
		C151.8,201.5,152.1,201.8,151.8,201.5z"/>
	<path class="st1" d="M166.3,197.5c-0.3-0.5-1.2-1.1-1.7-1.4c-0.5-0.5-1.1-0.9-1.6-1.3c-1-0.9-2.1-1.8-3.2-2.6
		c-0.5-0.5-2.2,0.8-2.7,1.1c-0.6-1.1-1.1-2.1-1.7-3.2c-0.3-0.6-0.6-1.4-1.1-1.8c-0.4-0.3-0.8-0.7-1.2-1c-0.8-0.7-1.6-1.3-2.4-2
		c-0.3-0.2-0.5-0.4-0.8-0.6c-0.8-0.7-2.1,0.5-2.9,0.9c-0.2,0.1-0.3,0.3-0.2,0.5c2.1,4,4.3,8.1,6.4,12.1c0.3,0.5,0.9,1.2,1.3,1.5
		c0.5,0.5,0.8,1.1,1.4,1.5c0.8,0.8,1.5,1.9,2.4,2.6c0.3,0.3,0.6,0.9,1,0.6c0.8-0.4,1.5-0.8,2.3-1.2c1.9-1,3.8-2,5.7-3
		c0.2-0.1,0.3-0.4,0.2-0.6L166.3,197.5C166.2,197.4,166.3,197.5,166.3,197.5z"/>
	<path class="st1" d="M175,178.2c-2.6-0.7-5.1-1.6-7.6-2.5c-5-1.6-10.2,2.6-9.7,7.8c0.3,2.8,2,4.7,4.2,6.2c1.1,0.7,2.2,1.5,3.3,2.3
		c2,1.3,3.8,2.9,6.3,3.1c4.4,0.5,8.5-2.6,9.4-6.9C181.8,183.9,179.2,179.5,175,178.2C175,178.2,176.6,178.7,175,178.2z M169.3,182.9
		c0,1.2-0.6,2.4-1.6,3.2C167.8,184.8,168.4,183.7,169.3,182.9C169.3,184,168.4,183.7,169.3,182.9z"/>
	<path class="st1" d="M195.8,171.5c-1-0.8-2-1.6-3.1-2.5c-0.7-0.6-1.7-1.8-2.8-1.8c-1.1-0.2-2.5-0.5-3.6-0.4
		c0.2-0.4-0.1-1.3-0.1-1.7c0-0.4,0-1.6-0.6-1.6c-1.4-0.3-3.1-0.2-4.5-0.3c-1.5-0.3-3-0.1-4.5-0.3c-1-0.2-2.6,0.8-3.3,1.3
		c-1.1,0.7-1.9,1.7-2.5,2.8c-1,2-1,4.5,0,6.5c1.2,2.5,3.5,3.7,6,4.4c1.5,0.5,3,0.9,4.4,1.4c1,0.3,2,0.7,3,1c5.7,1.8,11-2.8,11.8-8.4
		C196,171.8,195.9,171.6,195.8,171.5C195.8,171.5,195.9,171.6,195.8,171.5z"/>
	<path class="st1" d="M130.9,213c-0.1-1.2-0.7-2.4-0.8-3.6c-0.1-0.6-0.3-1.2-0.4-1.8c0-0.5-0.2-1.6-0.5-2c0,0-0.1-0.1-0.1-0.1
		c1.8-2.1,1.1-4.6,0.4-7c-0.2-0.9-0.5-1.9-0.8-2.8c-0.6-2.3-2.5-3.8-4.9-3.7c-2,0.1-4,0.3-6.1,0.4c-0.2,0-0.4,0.2-0.4,0.4
		c0,0.8-0.2,1.8-0.1,2.6c0,0.8-0.2,1.8-0.1,2.6c0,2.6,0.4,5.2,0.6,7.8c0.2,2.7,0.4,5.4,0.6,8.1c0,0.2,0.2,0.4,0.5,0.4l2.8-0.2
		c0.2,0,0.4-0.2,0.4-0.5c-0.1-1.8-0.2-3.6-0.4-5.3c0-0.3,0-0.5-0.1-0.8l1.6-0.1c1,1.7,2,3.4,3,5.1c0.3,0.5,0.5,1.2,1.2,1.2
		c1-0.1,2-0.1,2.9-0.2C130.8,213.5,130.9,213.3,130.9,213C130.9,213,130.9,213,130.9,213C130.9,213,130.9,213,130.9,213z"/>
	<path class="st1" d="M80.7,182.8c0.1-0.2,0.1-0.4-0.1-0.6c-0.4-0.3-1.9-1.8-2.5-1.5c-0.2,0.1-0.5,0.2-0.7,0.4
		c-0.5,0.2-1,0.5-1.4,0.8c-0.9,0.6-2,0.9-2.9,1.5l-1.4-8c-0.8-0.6-1.2-0.1-2,0c-0.5,0-1.2,0.3-1.7,0.5c-1,0.4-2.1,0.5-3,1
		c3-4.4,0.4-10.7-5-11.6c-1.3-0.2-2.8,0-4.1,0.2c-1.5,0.2-3.2,0.2-4.7,0.5c-0.8,0.1-1.6,0.1-2.4,0.2c-4.4,0.6-8,4-8,8.6
		c0,4.9,4.4,9,9.4,8.6c1.4-0.1,2.6-0.7,3.9-1.1c1.2-0.4,2.4-0.9,3.6-1.3c1.4-0.5,2.8-0.9,4.1-1.5l-8.1,11c-0.1,0.2-0.1,0.5,0.1,0.6
		c0.8,0.6,1.5,1.1,2.3,1.7c0.3,0.2,1-0.2,1.3-0.4c0.6-0.3,1.2-0.6,1.8-1c1.2-0.6,2.4-1.2,3.5-1.9c0.4,2.4,0.7,4.9,1.1,7.3
		c0.1,0.8,0,1.9,0.7,2.4c0.5,0.4,1-0.2,1.4-0.5c1.3-0.6,2.4-1.9,3.6-2.7c0.5-0.3,1.5-0.9,1.8-1.4c0.3-0.2,0.7-0.4,0.9-0.7
		c1.1-0.9,1.9-2.4,2.7-3.5c1.7-2.4,3.5-4.7,5.2-7.1C80.3,183.3,80.5,183,80.7,182.8C80.8,182.6,80.7,182.8,80.7,182.8z"/>
	<path class="st1" d="M93.7,188c-2.9-1.1-6-0.1-8.1,2c-0.4,0.4-0.8,0.8-1.3,1.2c-0.9,0.7-1.7,1.6-2.5,2.3c-1.9,1.9-3.5,4-3.5,6.9
		c-0.1,4.7,3.8,8.7,8.5,8.8c3.7,0.1,6.6-2.2,8.2-5.4c0.3-0.6,0.7-1.2,1-1.9c0.5-0.9,1-1.8,1.4-2.7c0.5-1,1-1.9,1.2-3.1
		C99.1,192.8,97,189.2,93.7,188C91,187.1,97.6,189.4,93.7,188z M89.8,199c-1.4-0.5-2.4-1.7-2.6-3.1c2,0.1,3.7,1.4,4.3,3.3
		C90.9,199.2,90.3,199.2,89.8,199C88.4,198.5,90.3,199.2,89.8,199z"/>
	<path class="st1" d="M113.9,192.5l-2.5-0.3c-0.2,0-0.4,0.1-0.4,0.3c-0.2,0.8-0.5,1.7-0.6,2.6c-0.2,0.8-0.5,1.7-0.6,2.6
		c-0.3,1.5-0.4,3.1-0.6,4.7c-1.7,1.8-4.7,0.3-4.4-2.1l1-8.3c0-0.2-0.1-0.4-0.3-0.4c-0.6-0.1-2.6-0.7-3,0c-0.1,0.2-0.2,0.4-0.3,0.6
		c-0.2,0.4-0.4,0.8-0.6,1.2c-0.5,0.8-0.8,1.7-1.2,2.5c-0.6,1-0.5,2.3-0.7,3.4c-0.3,2.4-0.6,4.7-0.9,7.1c-0.5,3.7,2.3,7,5.9,7.5
		c3.6,0.5,7.2-2.1,7.6-5.8c0.4-3.3,0.8-6.6,1.2-9.9l0,0c0,0,0-0.1,0-0.1l0,0c0,0,0-0.1,0-0.1l0,0c0-0.1,0-0.3,0-0.4l0,0
		c0-0.3,0.1-0.6,0.1-0.9l0,0c0,0,0-0.1,0-0.1l0,0c0-0.2,0-0.3,0.1-0.5l0,0l0-0.1l0,0l0-0.2l0,0c0-0.1,0-0.2,0-0.2l0,0l0-0.1l0,0l0,0
		l0,0l0-0.2l0,0c0-0.1,0-0.1,0-0.2l0,0l0-0.1l0,0l0-0.1l0,0l0-0.1l0,0l0-0.1l0,0l0-0.2l0,0c0-0.2,0-0.3,0.1-0.5l0,0
		c0-0.3,0.1-0.5,0.1-0.8l0,0l0-0.1l0,0c0-0.1,0-0.1,0-0.2l0,0l0-0.1C114.3,192.7,114.1,192.5,113.9,192.5
		C113.9,192.5,114.1,192.5,113.9,192.5z"/>
</g>
<g>
	<path class="st0" d="M56.1,169.2c3.1,3.6,2.7,9.1-0.9,12.2c-3.6,3.1-9,2.7-12.2-0.9c-3.1-3.6-2.7-9,0.9-12.2
		C47.6,165.2,53,165.6,56.1,169.2z M45.9,178c1.7,2,4.8,2.2,6.8,0.5c2-1.7,2.2-4.8,0.5-6.8c-1.7-2-4.8-2.2-6.8-0.5
		C44.4,173,44.2,176,45.9,178z"/>
	<path class="st0" d="M63.3,177.6c0.1-0.2,0.4-0.2,0.6-0.1l0.5,0.4l2.2,13.1l0,0l5.1-6.9c0.1-0.2,0.4-0.3,0.6-0.1l2.3,1.7
		c0.2,0.1,0.2,0.4,0.1,0.6l-9.6,13c-0.1,0.2-0.4,0.2-0.6,0.1l-0.3-0.2c-0.1,0-0.2-0.2-0.2-0.3l-2-13.3l0,0l-5.3,7.2
		c-0.1,0.2-0.4,0.3-0.6,0.1l-2.3-1.7c-0.2-0.1-0.2-0.4-0.1-0.6L63.3,177.6z"/>
	<path class="st0" d="M89.8,192.5c4.5,1.6,6.8,6.6,5.2,11.1s-6.5,6.8-11,5.2c-4.5-1.6-6.8-6.5-5.2-11S85.3,190.9,89.8,192.5z
		 M85.3,205.2c2.5,0.9,5.2-0.4,6.1-2.9c0.9-2.5-0.4-5.3-2.9-6.2c-2.5-0.9-5.2,0.4-6.1,2.9C81.5,201.5,82.8,204.3,85.3,205.2z"/>
	<path class="st0" d="M100,196.4c0-0.2,0.3-0.4,0.5-0.4l2.9,0.4c0.3,0,0.4,0.3,0.4,0.5l-1.2,9.6c-0.2,1.7,0.9,3.2,2.6,3.4
		c1.7,0.2,3.1-1,3.4-2.6l1.2-9.6c0-0.2,0.2-0.4,0.5-0.4l2.9,0.4c0.2,0,0.4,0.3,0.4,0.5l-1.2,9.8c-0.5,3.6-3.9,6.2-7.6,5.8
		c-3.7-0.5-6.4-3.9-5.9-7.5L100,196.4z"/>
	<path class="st0" d="M117.1,198.1c0-0.2,0.2-0.5,0.4-0.5l7.2-0.5c2.9-0.2,5.4,1.9,5.6,4.8c0.2,2.2-1.2,4.1-3.2,5.1l3.7,5.8
		c0.2,0.3,0.1,0.7-0.4,0.7l-3.2,0.2c-0.2,0-0.3-0.1-0.4-0.2l-3.7-6.1l-1.7,0.1l0.5,6.1c0,0.2-0.2,0.5-0.4,0.5l-2.8,0.2
		c-0.3,0-0.5-0.2-0.5-0.4L117.1,198.1z M124.9,204.3c1-0.1,1.8-1,1.7-2c-0.1-1-1-1.8-2-1.7l-3.5,0.3l0.3,3.7L124.9,204.3z"/>
	<path class="st0" d="M137.8,195.4c-0.1-0.2,0-0.5,0.3-0.6l5.3-1.8c2.7-0.9,5.5,0.2,6.3,2.6c0.6,1.8-0.6,3.6-1.4,4.5
		c1.4,0.1,3.6,0.6,4.3,2.7c0.9,2.5-0.8,5.1-3.5,6.1l-5.6,1.9c-0.2,0.1-0.5-0.1-0.6-0.3L137.8,195.4z M145.2,199.6
		c0.9-0.3,1.3-1.3,1-2.2c-0.3-0.9-1.2-1.3-2.1-1l-1.8,0.6l1.1,3.2L145.2,199.6z M147.5,205.8c0.9-0.3,1.4-1.3,1.1-2.2
		c-0.3-0.9-1.5-1.3-2.4-1l-1.8,0.6l1.1,3.3L147.5,205.8z"/>
	<path class="st0" d="M151.3,190.4c-0.1-0.2,0-0.5,0.2-0.6l2.5-1.3c0.2-0.1,0.5,0,0.6,0.2l6,11.3l5-2.7c0.2-0.1,0.5,0,0.6,0.2
		l1.2,2.3c0.1,0.2,0,0.5-0.2,0.6l-8,4.2c-0.2,0.1-0.5,0-0.6-0.2L151.3,190.4z"/>
	<path class="st0" d="M167.1,179.7c3.7-3,9.2-2.4,12.2,1.4c3,3.7,2.4,9.1-1.4,12.1c-3.7,3-9.1,2.4-12.1-1.3
		C162.8,188.1,163.3,182.7,167.1,179.7z M175.5,190.2c2.1-1.6,2.4-4.7,0.8-6.7c-1.6-2.1-4.7-2.4-6.8-0.8c-2,1.6-2.4,4.7-0.7,6.7
		C170.4,191.5,173.4,191.8,175.5,190.2z"/>
	<path class="st0" d="M180,166.7c1.3-1.6,3.3-2.8,5.4-3.1c0.3-0.1,0.5,0.1,0.5,0.4l0.4,2.7c0,0.3-0.2,0.5-0.4,0.5
		c-1.2,0.2-2.1,0.8-2.9,1.7c-1.6,2-1.3,5.1,0.8,6.7c2,1.6,5.1,1.3,6.7-0.7c0.4-0.5,0.8-1.2,1-1.9l-1.1-0.9l-1,1.2
		c-0.2,0.2-0.4,0.2-0.6,0.1l-1.8-1.5c-0.2-0.2-0.2-0.4-0.1-0.6l3-3.7c0.2-0.2,0.4-0.2,0.6,0l5,4c0.1,0.1,0.2,0.3,0.2,0.4
		c0,0-0.3,2.9-2.5,5.6c-3,3.7-8.4,4.3-12.1,1.3C177.6,175.8,177,170.4,180,166.7z"/>
</g>
</svg>
