<?xml version="1.0" encoding="utf-8"?>
<!-- Generator: Adobe Illustrator 15.0.2, SVG Export Plug-In . SVG Version: 6.00 Build 0)  -->
<!DOCTYPE svg PUBLIC "-//W3C//DTD SVG 1.1//EN" "http://www.w3.org/Graphics/SVG/1.1/DTD/svg11.dtd">
<svg version="1.1" id="Layer_1" xmlns="http://www.w3.org/2000/svg" xmlns:xlink="http://www.w3.org/1999/xlink" x="0px" y="0px"
	 width="388.4px" height="116.1px" viewBox="0 0 388.4 116.1" style="enable-background:new 0 0 388.4 116.1;" xml:space="preserve"
	>
<style type="text/css">
<![CDATA[
	.st0{fill:#D1F1F9;}
	.st1{fill:#3DABEE;}
]]>
</style>
<path class="st0" d="M387.8,110.3l-30.6-39.8l28.1-35.2c0.9-1.3,0.6-2.9-0.4-3.8c-1.2-1.4-2.6-2.5-3.8-3.8c-1.2-1.3-2.5-2.5-3.7-3.7
	c-2.7-2.7-5.4-5.3-8-8.1c-2.4-2.6-5.1-5-7.6-7.5c-1.3-1.3-2.5-2.7-3.9-4c-1.1-1.1-2.5-2.9-4.2-2.9h-15.1c-0.7,0-1.8,0.6-2.3,1.2
	l-12.1,15.1c-2.9-2.8-5.8-5.7-8.5-8.6c-1.4-1.5-2.9-2.9-4.4-4.4c-1.2-1.2-2.7-3.3-4.5-3.3h-14c-1.7,0-2.9,1.3-2.9,2.9v28.5
	c-4.6-4.6-9.2-9.3-13.9-13.9c-2.3-2.3-4.6-4.6-6.9-6.9c-2-2-4-4-6.3-5.7c-4.4-3.2-9.7-4.9-15.2-4.9c-1.2,0-2.4,0-3.6,0
	c-10.6,0-21.2,0-31.9,0c-0.1,0-0.3,0-0.4,0c-1.3,0-2.3,1.1-2.3,2.3v36.3c-4.7-4.7-9.4-9.4-14.1-14.1c-4.5-4.5-8.8-9-13.4-13.4
	c-8.3-7.9-19.2-12.4-30.7-12.3c-13.3,0.1-26.1,6.6-34.1,17.3c-2.8-2.9-5.7-5.7-8.5-8.6c-1.4-1.4-2.9-2.7-4.3-4.2
	c-1.1-1.2-2.6-3.3-4.4-3.3H86c-1,0-1.9,0.8-2.2,1.7l-5.6,22c-2.3-2.3-4.6-4.5-6.8-6.8c-1.1-1.1-2.2-2.3-3.3-3.4
	c-1-1-2.1-2.1-3.1-3.2c-2.1-2.1-4.3-4.1-6.3-6.2c-1.1-1.1-2.1-2.3-3.3-3.3c-0.9-0.8-1.8-2-3.1-2h-2.2c-1,0-1.7,0.6-2,1.3l-9.4,21.3
	c-0.9-0.6-1.5-1.7-2.4-2.4c-0.9-1-1.9-1.9-2.8-2.8c-1.9-1.9-3.9-3.8-5.7-5.8c-1.8-2-3.9-3.8-5.7-5.7c-0.9-1-1.9-2-2.8-2.9
	c-0.8-0.7-1.6-1.8-2.8-1.8h-14c-1.7,0-2.6,1.2-2.2,2.9L23.1,85c0.2,0.7,0.7,1.2,1.2,1.7c0.6,0.7,1.3,1.4,2,2.1
	c1.4,1.3,2.7,2.6,4,3.9c1.5,1.4,2.9,2.9,4.3,4.3c1.3,1.3,2.7,2.6,3.9,4c1.2,1.4,2.6,2.5,3.8,3.8c1.3,1.4,2.7,2.7,4.1,4
	c1.4,1.4,2.8,2.8,4.2,4.3c1,1,2.4,3,4,3h1.9c0.8,0,1.7-0.6,2-1.3l13.9-31.3l0.8,1.9c0.4,0.8,1.1,1.3,1.7,1.8c0.7,0.6,1.3,1.3,2,2
	c1.3,1.3,2.7,2.6,3.9,4c2.4,2.8,5.4,5.2,7.9,7.9c1.3,1.4,2.7,2.6,4,3.9c1.3,1.3,2.6,2.7,3.9,4c1.3,1.3,2.7,2.6,4,3.9
	c1,1,2.5,3.1,4,3.1h1.9c1,0,1.9-0.7,2.2-1.7l11.5-41.1c4.5,4.7,9.2,9.2,13.8,13.8c4.7,4.6,9.3,9.3,14,14c3.7,3.6,7.3,7,11.9,9.5
	c4.2,2.3,8.7,3.8,13.3,4.7c8.4,1.5,17.2,0.5,25-2.8c8.7-3.7,16.1-10.4,20.6-18.7c3.8,3.6,7.5,7.5,11.2,11.2c1.9,1.9,3.8,3.8,5.6,5.7
	c0.8,0.9,1.6,1.7,2.5,2.5c0.8,0.7,1.6,1.7,2.8,1.7h14.3c1.2,0,2.3-1.1,2.3-2.3v-23c1.1,1,2.2,2.2,3.2,3.3c1,1.1,2.2,2.1,3.2,3.2
	c1,1.1,2.2,2.1,3.2,3.2c1.1,1.2,2.4,2.3,3.5,3.4c2.1,2.2,4.2,4.4,6.4,6.5c1.1,1,2.1,2,3.1,3.1c0.9,0.9,2,2.5,3.5,2.5h16
	c2,0,2.9-1.9,2-3.5l-16.4-30.5c1.6-0.6,3-1.4,4.4-2.2v3.9c0,0.9,0.4,1.6,1,2.2c2.3,2.7,5,5,7.5,7.5c2.7,2.7,5.4,5.3,8,8.1
	c2.5,2.7,5.3,5.1,7.9,7.8c1.3,1.3,2.5,2.7,3.9,4c1.1,1.1,2.4,2.7,4.1,2.7h14c1.6,0,2.9-1.3,2.9-2.9V86.2c0,0,0,0,0,0
	c1.2,1.4,2.8,2.4,3.9,3.9c0.6,0.8,1.5,1.3,2.1,2.1c0.5,0.7,1.2,1.2,1.8,1.8c0.4,0.7,1.3,1.4,1.9,1.9c0.6,0.6,1.4,1.2,2,1.9
	c0.5,0.7,1.3,1.4,1.9,1.9c0.7,0.6,1.2,1.4,1.9,1.9c4.1,4,8,8.4,12.2,12.2c0.2,0.4,1.3,0.8,2.2,0.8h16.6
	C387.8,114.8,389.1,112.1,387.8,110.3C387.8,110.3,389.1,112.1,387.8,110.3C387.8,110.3,389.1,112.1,387.8,110.3z M174.9,49.8
	c-2.2,8.1-8.6,14.6-16.8,16.9C160.4,58.5,166.8,52,174.9,49.8z"/>
<g>
	<path class="st1" d="M0.1,4.1c-0.5-1.7,0.5-2.9,2.2-2.9h14c1,0,1.9,0.8,2.2,1.7l10.3,40.7h0.5L47.9,1.3C48.2,0.6,49,0,49.9,0h2.2
		c1.1,0,1.8,0.6,2,1.3l18.6,42.2h0.5L83.5,2.9c0.2-0.8,1.2-1.7,2.2-1.7h14c1.7,0,2.6,1.2,2.2,2.9L79.2,84.7c-0.2,1-1.2,1.7-2.2,1.7
		h-1.9c-0.8,0-1.7-0.6-2-1.3L51.1,36h-0.4L28.9,85.1c-0.4,0.7-1.2,1.3-2,1.3H25c-1,0-1.9-0.7-2.2-1.7L0.1,4.1z"/>
	<path class="st1" d="M151.4,0c24,0,43.2,19.3,43.2,43.3s-19.2,43.1-43.2,43.1s-43.1-19.1-43.1-43.1S127.4,0,151.4,0z M151.4,67.2
		c13.2,0,24-10.8,24-23.9c0-13.2-10.8-24.1-24-24.1c-13.1,0-23.9,10.9-23.9,24.1C127.6,56.4,138.4,67.2,151.4,67.2z"/>
	<path class="st1" d="M209.2,3.5c0-1.2,1-2.3,2.3-2.3h35.9c14.4,0,26.2,11.6,26.2,25.9c0,11-7.3,19.9-17.8,24.1l16.4,30.5
		c0.8,1.6,0,3.5-2,3.5h-16c-1,0-1.7-0.6-1.9-1.1l-16-31.8H228v30.6c0,1.2-1.1,2.3-2.3,2.3h-14.3c-1.3,0-2.3-1.1-2.3-2.3V3.5z
		 M245.8,37.1c4.9,0,9.1-4.6,9.1-9.6s-4.2-9.1-9.1-9.1H228v18.7H245.8z"/>
	<path class="st1" d="M289.6,4.1c0-1.6,1.2-2.9,2.9-2.9h14c1.6,0,2.9,1.3,2.9,2.9v31.6L336,2.4c0.5-0.6,1.6-1.2,2.3-1.2h15.1
		c2.3,0,3.5,2.6,2.2,4.4l-28.1,35.2l30.6,39.8c1.3,1.8,0,4.4-2.3,4.4h-16.6c-0.8,0-1.9-0.5-2.2-0.8l-27.7-37.7v35.8
		c0,1.6-1.3,2.9-2.9,2.9h-14c-1.7,0-2.9-1.3-2.9-2.9V4.1z"/>
</g>
</svg>
